<?xml version="1.0" encoding="UTF-8"?>
<svg id="Layer_1" xmlns="http://www.w3.org/2000/svg" version="1.1" viewBox="0 0 24 24">
  <!-- Generator: Adobe Illustrator 29.4.0, SVG Export Plug-In . SVG Version: 2.1.0 Build 152)  -->
  <path d="M12,12c-1.65,0-3.06-.59-4.24-1.76-1.18-1.17-1.76-2.59-1.76-4.24s.59-3.06,1.76-4.24,2.59-1.76,4.24-1.76,3.06.59,4.24,1.76c1.18,1.17,1.76,2.59,1.76,4.24s-.59,3.06-1.76,4.24-2.59,1.76-4.24,1.76ZM0,24v-4.2c0-.85.22-1.63.66-2.34.44-.71,1.02-1.26,1.74-1.63,1.55-.77,3.13-1.36,4.73-1.74,1.6-.38,3.23-.58,4.88-.58s3.27.19,4.88.58,3.18.97,4.73,1.74c.72.38,1.31.92,1.74,1.63s.66,1.49.66,2.34v4.2H0ZM3,21h18v-1.2c0-.28-.07-.52-.21-.75s-.32-.4-.54-.52c-1.35-.67-2.71-1.18-4.09-1.52s-2.76-.51-4.16-.51-2.79.17-4.16.51-2.74.84-4.09,1.52c-.23.13-.41.3-.54.52s-.21.47-.21.75v1.2ZM12,9c.83,0,1.53-.29,2.12-.88s.88-1.29.88-2.12-.29-1.53-.88-2.12-1.29-.88-2.12-.88-1.53.29-2.12.88-.88,1.29-.88,2.12.29,1.53.88,2.12,1.29.88,2.12.88Z"/>
</svg>