<?xml version="1.0" encoding="UTF-8"?>
<svg id="Layer_1" xmlns="http://www.w3.org/2000/svg" version="1.1" viewBox="0 0 24 24">
  <!-- Generator: Adobe Illustrator 29.4.0, SVG Export Plug-In . SVG Version: 2.1.0 Build 152)  -->
  <path d="M2.67,24c-.73,0-1.36-.26-1.88-.78S0,22.07,0,21.34V2.67C0,1.94.27,1.31.79.79,1.31.27,1.94,0,2.67,0h9.33v2.67H2.67v18.67h18.67v-9.33h2.67v9.33c0,.73-.26,1.36-.78,1.88-.52.52-1.15.78-1.88.78H2.67ZM8.93,16.93l-1.87-1.87L19.47,2.67h-4.8V0h9.33v9.33h-2.67v-4.8l-12.4,12.4Z"/>
</svg>