<?xml version="1.0" encoding="UTF-8"?>
<svg id="Layer_1" xmlns="http://www.w3.org/2000/svg" version="1.1" viewBox="0 0 33 50">
  <!-- Generator: Adobe Illustrator 29.4.0, SVG Export Plug-In . SVG Version: 2.1.0 Build 152)  -->
  <defs>
    <style>
      .st0 {
        fill: #ff7262;
      }

      .st1 {
        fill: #a259ff;
      }

      .st2 {
        fill: #1abcfe;
      }

      .st3 {
        fill: #f24e1e;
      }

      .st4 {
        fill: #0acf83;
      }
    </style>
  </defs>
  <path class="st2" d="M16.5,25c0-4.6,3.69-8.33,8.25-8.33s8.25,3.73,8.25,8.33-3.69,8.33-8.25,8.33-8.25-3.73-8.25-8.33Z"/>
  <path class="st4" d="M0,41.67c0-4.6,3.69-8.33,8.25-8.33h8.25v8.33c0,4.6-3.69,8.33-8.25,8.33S0,46.27,0,41.67Z"/>
  <path class="st0" d="M16.5,0v16.67h8.25c4.56,0,8.25-3.73,8.25-8.33S29.31,0,24.75,0h-8.25Z"/>
  <path class="st3" d="M0,8.33c0,4.6,3.69,8.33,8.25,8.33h8.25V0h-8.25C3.69,0,0,3.73,0,8.33h0Z"/>
  <path class="st1" d="M0,25c0,4.6,3.69,8.33,8.25,8.33h8.25v-16.67h-8.25c-4.56,0-8.25,3.73-8.25,8.33h0Z"/>
</svg>