<?xml version="1.0" encoding="UTF-8"?>
<svg id="Layer_1" xmlns="http://www.w3.org/2000/svg" version="1.1" viewBox="0 0 50 50">
  <!-- Generator: Adobe Illustrator 29.4.0, SVG Export Plug-In . SVG Version: 2.1.0 Build 152)  -->
  <defs>
    <style>
      .st0 {
        fill: #464342;
      }
    </style>
  </defs>
  <path class="st0" d="M3.55,25c0,8.49,4.93,15.83,12.09,19.3L5.41,16.27c-1.23,2.75-1.86,5.72-1.86,8.73ZM39.48,23.92c0-2.65-.95-4.49-1.77-5.91-1.09-1.77-2.11-3.26-2.11-5.03,0-1.97,1.5-3.81,3.6-3.81.1,0,.19.01.28.02-3.82-3.5-8.9-5.63-14.48-5.63-7.49,0-14.08,3.84-17.92,9.67.5.02.98.03,1.38.03,2.24,0,5.72-.27,5.72-.27,1.16-.07,1.29,1.63.14,1.77,0,0-1.16.14-2.45.2l7.81,23.23,4.69-14.08-3.34-9.16c-1.15-.07-2.25-.2-2.25-.2-1.16-.07-1.02-1.83.14-1.77,0,0,3.54.27,5.65.27,2.24,0,5.72-.27,5.72-.27,1.16-.07,1.29,1.63.14,1.77,0,0-1.16.14-2.45.2l7.75,23.05,2.14-7.15c.93-2.97,1.63-5.1,1.63-6.93h0ZM25.38,26.88l-6.43,18.7c1.97.58,4.01.87,6.06.87,2.5,0,4.89-.43,7.12-1.22-.06-.09-.11-.19-.15-.3l-6.59-18.06h0ZM43.82,14.71c.09.68.14,1.42.14,2.21,0,2.18-.41,4.62-1.63,7.68l-6.55,18.94c6.38-3.72,10.66-10.63,10.66-18.54,0-3.73-.95-7.24-2.63-10.29h0ZM25,0C11.22,0,0,11.21,0,25s11.22,25,25,25,25-11.21,25-25c0-13.78-11.22-25-25-25h0ZM25,48.85c-13.15,0-23.85-10.7-23.85-23.85S11.85,1.15,25,1.15s23.85,10.7,23.85,23.85-10.7,23.85-23.85,23.85Z"/>
</svg>