<?xml version="1.0" encoding="UTF-8"?>
<svg id="Layer_1" xmlns="http://www.w3.org/2000/svg" version="1.1" viewBox="0 0 24 24">
  <!-- Generator: Adobe Illustrator 29.4.0, SVG Export Plug-In . SVG Version: 2.1.0 Build 152)  -->
  <path d="M10.8,18h-4.8c-1.66,0-3.07-.58-4.24-1.75s-1.76-2.58-1.76-4.25.59-3.07,1.76-4.24c1.17-1.17,2.59-1.76,4.24-1.76h4.8v2.4h-4.8c-1,0-1.85.35-2.55,1.05s-1.05,1.55-1.05,2.55.35,1.85,1.05,2.55,1.55,1.05,2.55,1.05h4.8v2.4ZM7.2,13.2v-2.4h9.6v2.4s-9.6,0-9.6,0ZM13.2,18v-2.4h4.8c1,0,1.85-.35,2.55-1.05s1.05-1.55,1.05-2.55-.35-1.85-1.05-2.55-1.55-1.05-2.55-1.05h-4.8v-2.4h4.8c1.66,0,3.08.59,4.25,1.76,1.17,1.17,1.75,2.59,1.75,4.24s-.58,3.08-1.75,4.25c-1.17,1.17-2.59,1.75-4.25,1.75h-4.8Z"/>
</svg>