<?xml version="1.0" encoding="UTF-8"?>
<svg id="Layer_1" xmlns="http://www.w3.org/2000/svg" version="1.1" viewBox="0 0 68 50">
  <!-- Generator: Adobe Illustrator 29.4.0, SVG Export Plug-In . SVG Version: 2.1.0 Build 152)  -->
  <defs>
    <style>
      .st0 {
        fill: #cc2229;
      }
    </style>
  </defs>
  <path class="st0" d="M60.62,7.29C55.93,2.6,49.61,0,42.93,0s-13,2.6-17.69,7.29l-.5.5c-1.2-.2-2.29-.31-3.49-.31-5.59,0-11.01,2.21-15.01,6.29-8.3,8.3-8.3,21.72,0,30.02,4,4,9.31,6.2,15.01,6.2h22.22c6.6-.11,12.72-2.71,17.3-7.29,9.67-9.81,9.67-25.71-.14-35.41ZM21.29,45.42c-4.5,0-8.61-1.9-11.71-5.11-6.51-6.51-6.51-16.99,0-23.42,3.1-3.1,7.3-4.89,11.71-4.89h.11c.89,0,1.59.11,2.4.2.89.2,1.71.31,2.6.59,1.59.5,3.1,1.31,4.39,2.21.59.5,1.31.89,1.79,1.51l.5.5,6.79,6.79c.89.89.89,2.29,0,3.3-.5.5-1.01.7-1.59.7s-1.2-.2-1.59-.7l-5.59-5.59-1.2-1.2c-.2-.2-.39-.31-.5-.5-1.59-1.4-3.49-2.29-5.59-2.71-.7-.2-1.51-.2-2.21-.2h-.31c-3.1.11-5.9,1.31-8.11,3.49-4.7,4.7-4.7,12.21,0,16.91,2.29,2.29,5.2,3.49,8.5,3.49h2.1l2.01,1.9c1.01,1.01,2.01,2.01,3.21,2.71h-7.72v.03ZM57.41,39.41c-2.1,2.1-4.61,3.69-7.41,4.7-.89.31-1.71.5-2.6.81-1.31.31-2.71.5-4.11.5h-.39c-4.81,0-9.31-1.59-12.91-4.61-.5-.39-1.01-.89-1.51-1.31l-9.62-9.61c-.89-.89-.89-2.29,0-3.3.5-.5,1.01-.7,1.59-.7s1.2.2,1.59.7l9.5,9.5c.89.89,1.9,1.59,2.91,2.29,2.4,1.51,5.2,2.29,8.19,2.29,1.31,0,2.71-.2,3.91-.5.81-.2,1.59-.5,2.29-.81,1.79-.81,3.49-1.9,5-3.41,6.09-6.09,6.09-16.1,0-22.22-3.1-3.1-7.1-4.61-11.1-4.61-3.1,0-6.09.89-8.81,2.71-1.31-1.01-2.71-1.9-4.3-2.6,3.8-3.1,8.5-4.7,13.11-4.7,5.2,0,10.4,2.01,14.4,5.9,8.16,8.08,8.16,20.99.25,28.98"/>
</svg>