<?xml version="1.0" encoding="UTF-8"?>
<svg id="Layer_1" xmlns="http://www.w3.org/2000/svg" version="1.1" viewBox="0 0 50 50">
  <!-- Generator: Adobe Illustrator 29.4.0, SVG Export Plug-In . SVG Version: 2.1.0 Build 152)  -->
  <defs>
    <style>
      .st0 {
        fill: #2489ca;
      }

      .st1 {
        fill: #0877b9;
      }

      .st2 {
        fill: #3c99d4;
      }

      .st3 {
        fill: #1070b3;
      }
    </style>
  </defs>
  <path class="st0" d="M.48,17.44s-1.22-.89.24-2.07l3.41-3.08s.97-1.04,2-.13l31.42,24.04v11.53s-.01,1.81-2.31,1.61L.48,17.44Z"/>
  <path class="st3" d="M8.58,24.87L.48,32.31s-.83.63,0,1.74l3.76,3.46s.89.97,2.21-.13l8.59-6.58-6.46-5.93Z"/>
  <path class="st1" d="M22.79,24.93l14.85-11.46-.1-11.47s-.63-2.5-2.75-1.2L15.03,18.98l7.76,5.95Z"/>
  <path class="st2" d="M35.23,49.35c.86.89,1.91.6,1.91.6l11.57-5.77c1.48-1.02,1.27-2.29,1.27-2.29V7.47c0-1.51-1.53-2.04-1.53-2.04L38.43.55c-2.19-1.37-3.63.25-3.63.25,0,0,1.85-1.34,2.75,1.2v45.52c0,.31-.07.62-.2.9-.26.54-.84,1.04-2.21.83l.1.11Z"/>
</svg>