<?xml version="1.0" encoding="UTF-8"?>
<svg id="Layer_1" xmlns="http://www.w3.org/2000/svg" version="1.1" viewBox="0 0 24 24">
  <!-- Generator: Adobe Illustrator 29.4.0, SVG Export Plug-In . SVG Version: 2.1.0 Build 152)  -->
  <path d="M12,24c-.66,0-1.23-.24-1.69-.7s-.7-1.03-.7-1.69h4.8c0,.66-.23,1.23-.7,1.69s-1.03.7-1.69.7h-.02ZM7.2,20.4v-2.4h9.6v2.4H7.2ZM7.5,16.8c-1.38-.82-2.48-1.92-3.28-3.3s-1.22-2.88-1.22-4.5c0-2.5.88-4.63,2.62-6.38,1.75-1.75,3.87-2.62,6.38-2.62s4.63.88,6.38,2.62c1.75,1.74,2.62,3.88,2.62,6.38,0,1.62-.41,3.12-1.22,4.5s-1.91,2.48-3.28,3.3H7.5ZM8.22,14.4h7.56c.9-.64,1.6-1.43,2.08-2.37s.74-1.95.74-3.03c0-1.84-.64-3.4-1.92-4.68s-2.84-1.92-4.68-1.92-3.4.64-4.68,1.92-1.92,2.84-1.92,4.68c0,1.08.24,2.09.74,3.03s1.18,1.73,2.09,2.37h-.01Z"/>
</svg>